<svg xmlns="http://www.w3.org/2000/svg" width="300" height="1000" viewBox="0 0 300 1000"><path d="M48 32L32 16m0 0L16 32m0 16l16 16m0 0l16-16m0 63H16m19.5-22.7H24.1m0 0v16m0 0h16m0 0V93.5m0 0l-4.5-5.2m4.5 5.2h-4.8m0 0v-5.2M23.5 98.9h-3.7m24.4 0h-3.7m3.7 0l3.8 3.8m-28.2-3.8l-3.8 3.8m32 0v8.3m-32-8.3v8.3" fill="none" stroke="#706F6F" stroke-width="2" stroke-linecap="round" stroke-linejoin="round" stroke-miterlimit="10"/><path fill="#706F6F" d="M40.1 93.5l-4.6-5.2.1 5.2"/><path d="M40.3 145.2v-8.5m0 0h-8.5m8.5 0l-13.7 13.7M36 160H16.1m-.1-.1V141m.1 0h11.4m8.5 18.9v-9.5M16 199l6 6m0 0l6-6m-6 6v-18m-6 21h12" fill="none" stroke="#706F6F" stroke-width="2" stroke-linecap="round" stroke-linejoin="round" stroke-miterlimit="10"/><g fill="none" stroke="#706F6F" stroke-linejoin="round" stroke-miterlimit="10"><path stroke-width="2" stroke-linecap="round" d="M16 232h32m-32 8h32m-32 8h32m-32 8h32m-32 0v-24m32 24v-24m-8 24v-24m-8 24v-24m-8 24v-24"/><path stroke-width="5" d="M40 228v4m-16-4v4"/></g><path fill="none" stroke="#706F6F" stroke-width="2" stroke-linecap="round" stroke-linejoin="round" stroke-miterlimit="10" d="M32.8 302.7c0-8.6-6.9-15.5-15.5-15.5M38 302.7c0-11.4-9.3-20.7-20.7-20.7m10.3 20.7c0-5.7-4.6-10.4-10.4-10.4"/><circle fill="#706F6F" cx="18.6" cy="301.4" r="2.6"/><path d="M112 31.9l-16-16m0 0l-16 16" fill="none" stroke="#F1F2F2" stroke-width="2" stroke-linecap="round" stroke-linejoin="round" stroke-miterlimit="10"/><path d="M18 512.1l16-16m0 0l-16-16" fill="none" stroke="#706F6F" stroke-width="2" stroke-linecap="round" stroke-linejoin="round" stroke-miterlimit="10"/><path d="M82 511.9l16-16m0 0l-16-16" fill="none" stroke="#F1F2F2" stroke-width="2" stroke-linecap="round" stroke-linejoin="round" stroke-miterlimit="10"/><path d="M34 544.1l-16 16m0 0l16 16" fill="none" stroke="#706F6F" stroke-width="2" stroke-linecap="round" stroke-linejoin="round" stroke-miterlimit="10"/><path d="M98 543.9l-16 16m0 0l16 16m-18-528l16 16m0 0l16-16m0 62.9H80m19.5-22.6H88.1m0 0v16m0 0h16m0 0V93.3m0 0l-4.5-5.1m4.5 5.1h-4.8m0 0v-5.1M87.5 98.8h-3.7m24.4 0h-3.7m3.7 0l3.8 3.8m-28.2-3.8l-3.8 3.8m32 0v8.2m-32-8.2v8.2" fill="none" stroke="#F1F2F2" stroke-width="2" stroke-linecap="round" stroke-linejoin="round" stroke-miterlimit="10"/><path fill="#F1F2F2" d="M104.1 93.3l-4.6-5.1.1 5.1"/><path d="M104.3 145.1v-8.5m0 0h-8.5m8.5 0l-13.7 13.7m9.4 9.6H80.1m-.1-.1v-18.9m.1 0h11.4m8.5 18.9v-9.5m-20 48.6l6 6m0 0l6-6m-6 6v-18m-6 21h12" fill="none" stroke="#F1F2F2" stroke-width="2" stroke-linecap="round" stroke-linejoin="round" stroke-miterlimit="10"/><g fill="none" stroke="#F1F2F2" stroke-linejoin="round" stroke-miterlimit="10"><path stroke-width="2" stroke-linecap="round" d="M80 231.9h32m-32 8h32m-32 8h32m-32 8h32m-32 0v-24m32 24v-24m-8 24v-24m-8 24v-24m-8 24v-24"/><path stroke-width="5" d="M104 227.9v4m-16-4v4"/></g><path fill="none" stroke="#F1F2F2" stroke-width="2" stroke-linecap="round" stroke-linejoin="round" stroke-miterlimit="10" d="M96.8 302.6c0-8.6-6.9-15.5-15.5-15.5m20.7 15.5c0-11.4-9.3-20.7-20.7-20.7m10.3 20.7c0-5.7-4.6-10.4-10.4-10.4"/><circle fill="#F1F2F2" cx="82.6" cy="301.3" r="2.6"/><path fill="none" stroke="#706F6F" stroke-width="2" stroke-linecap="round" stroke-linejoin="round" stroke-miterlimit="10" d="M16 336h32m-32 12h32m-32 12h32"/><path fill="none" stroke="#F1F2F2" stroke-width="2" stroke-linecap="round" stroke-linejoin="round" stroke-miterlimit="10" d="M79.8 336h32m-32 12h32m-32 12h32"/><path fill="#706F6F" d="M24.3 407.5c-4.3-.1-7.7-3.6-7.6-7.9s3.6-7.7 7.9-7.6 7.7 3.6 7.6 7.9c-.1 4.3-3.7 7.7-7.9 7.6zm.2-13.8c-3.3-.1-6.1 2.6-6.2 5.9-.1 3.3 2.6 6.1 5.9 6.2s6.1-2.6 6.2-5.9-2.6-6.1-5.9-6.2z"/><path fill="#706F6F" d="M30.83 402.432l5.625 5.83-3.022 2.916-5.625-5.83z"/><path fill="#F1F2F2" d="M87.6 407.5c-4.3-.1-7.7-3.6-7.6-7.9.1-4.3 3.6-7.7 7.9-7.6 4.3.1 7.7 3.6 7.6 7.9-.1 4.3-3.6 7.7-7.9 7.6zm.3-13.8c-3.3-.1-6.1 2.6-6.2 5.9s2.6 6.1 5.9 6.2c3.3.1 6.1-2.6 6.2-5.9s-2.6-6.1-5.9-6.2z"/><path fill="#F1F2F2" d="M94.144 402.4l5.625 5.83-3.023 2.916-5.624-5.829z"/><path fill="none" stroke="#706F6F" stroke-width="2" stroke-linecap="round" stroke-linejoin="round" stroke-miterlimit="10" d="M35.9 440H24.5m0 0v24.2m0 0h16m0 0v-19m0 0L36 440"/><path fill="none" stroke="#706F6F" stroke-linecap="round" stroke-linejoin="round" stroke-miterlimit="10" d="M40.5 445.2h-4.9m0 0V440"/><path fill="#706F6F" d="M40.5 445.2l-4.6-5.2.1 5.2"/><path fill="#B21F2B" d="M17 442.6h16.9v10.8H17z"/><path d="M22.4 447.3c0 .6-.2 1-.5 1.3-.3.3-.8.5-1.4.5h-.4v1.7h-1.4v-5h1.7c.6 0 1.1.1 1.4.4.4.2.6.6.6 1.1zm-2.3.6h.2c.2 0 .4-.1.5-.2.1-.1.2-.3.2-.5 0-.3-.2-.5-.6-.5h-.3v1.2zm8 .2c0 .8-.2 1.5-.7 1.9s-1.1.7-1.9.7h-1.6v-5h1.7c.8 0 1.4.2 1.9.6s.6 1 .6 1.8zm-1.4 0c0-.5-.1-.8-.3-1-.2-.2-.5-.3-.8-.3h-.4v2.8h.3c.4 0 .7-.1.9-.4s.3-.6.3-1.1zm4.3 2.6h-1.3v-5h3v1.1H31v1h1.5v1.1H31v1.8z" fill="#FFF"/><path fill="none" stroke="#F9F9F9" stroke-width="2" stroke-linecap="round" stroke-miterlimit="10" d="M98.3 440H86.9m0 0v24.2m0 0h16m0 0v-19m0 0l-4.5-5.2"/><path fill="none" stroke="#F9F9F9" stroke-linecap="round" stroke-miterlimit="10" d="M102.9 445.2h-4.8m0 0V440"/><path fill="#F9F9F9" d="M102.9 445.2l-4.6-5.2.1 5.2"/><path fill="#B21F2B" d="M79.4 442.6h16.9v10.8H79.4z"/><path d="M84.8 447.3c0 .6-.2 1-.5 1.3-.3.3-.8.5-1.4.5h-.4v1.7h-1.4v-5h1.7c.6 0 1.1.1 1.4.4.4.2.6.6.6 1.1zm-2.3.6h.2c.2 0 .4-.1.5-.2.1-.1.2-.3.2-.5 0-.3-.2-.5-.6-.5h-.3v1.2zm8 .2c0 .8-.2 1.5-.7 1.9s-1.1.7-1.9.7h-1.6v-5H88c.8 0 1.4.2 1.9.6s.6 1 .6 1.8zm-1.4 0c0-.5-.1-.8-.3-1-.2-.2-.5-.3-.8-.3h-.4v2.8h.3c.4 0 .7-.1.9-.4s.3-.6.3-1.1zm4.3 2.6h-1.3v-5h3v1.1h-1.6v1H95v1.1h-1.5v1.8z" fill="#FFF"/><path d="M47.9 632l-16-16m0 0l-16 16m16-16v32m0 0h16" fill="none" stroke="#706F6F" stroke-width="2" stroke-linecap="round" stroke-linejoin="round" stroke-miterlimit="10"/><path d="M112.3 632l-16-16m0 0l-16 16m16-16v32m0 0h16" fill="none" stroke="#F1F2F2" stroke-width="2" stroke-linecap="round" stroke-linejoin="round" stroke-miterlimit="10"/><circle fill="#3C7A9F" stroke="#F1F2F2" stroke-width="2" stroke-miterlimit="10" cx="31.9" cy="695.9" r="15.9"/><path fill="#F1F2F2" d="M32.2 702.8h-2.4l2.4-11.2h2.4l-2.4 11.2zm.4-14c0-.5.1-.8.4-1.1s.6-.4 1.1-.4c.4 0 .6.1.9.3.2.2.3.5.3.8 0 .5-.1.9-.4 1.1-.3.3-.6.4-1.1.4-.4 0-.7-.1-.9-.3-.1-.1-.3-.4-.3-.8z"/><circle fill="#3C7A9F" stroke="#F1F2F2" stroke-miterlimit="10" cx="96" cy="695.9" r="15.9"/><path fill="#F1F2F2" d="M95.7 702.8H94l2.4-11.1H98l-2.3 11.1zm1.1-13.9c0-.4.1-.7.3-.9.2-.2.5-.4.8-.4.6 0 .9.3.9.9 0 .4-.1.7-.3.9-.2.3-.5.4-.8.4-.3 0-.5-.1-.7-.2-.1-.2-.2-.4-.2-.7zM31.9 744h16l-8 11.1-8 11.1-8-11.1-8-11.1z"/><path d="M155.1 22.3l-8-8m0 0l-8 8m0 8l8 8m0 0l8-8m0 31.5h-16m9.8-11.3h-5.7m0 0v8m0 0h8m0 0v-5.4m0 0l-2.2-2.6m2.2 2.6h-2.4m0 0v-2.6m-5.9 5.3H141m12.2 0h-1.8m1.8 0l1.9 1.9M141 55.8l-1.9 1.9m16 0v4.1m-16-4.1v4.1" fill="none" stroke="#706F6F" stroke-linecap="round" stroke-linejoin="round" stroke-miterlimit="10"/><path fill="#706F6F" d="M151.2 53.1l-2.3-2.6.1 2.6"/><path d="M151.3 78.9v-4.2m0 0H147m4.3 0l-6.9 6.9m4.7 4.7h-9.9m-.1 0v-9.5m.1 0h5.7m4.2 9.5v-4.8m-10 24.3l3 3m0 0l3-3m-3 3v-9m-3 10.5h6" fill="none" stroke="#706F6F" stroke-linecap="round" stroke-linejoin="round" stroke-miterlimit="10"/><g fill="none" stroke="#706F6F" stroke-linejoin="round" stroke-miterlimit="10"><path stroke-linecap="round" d="M139.1 122.3h16m-16 4h16m-16 4h16m-16 4h16m-16 0v-12m16 12v-12m-4 12v-12m-4 12v-12m-4 12v-12"/><path d="M151.1 120.3v2m-8-2v2"/></g><path fill="none" stroke="#706F6F" stroke-linecap="round" stroke-linejoin="round" stroke-miterlimit="10" d="M147.5 157.7c0-4.3-3.5-7.8-7.8-7.8m10.4 7.8c0-5.7-4.6-10.4-10.4-10.4m5.3 10.4c0-2.9-2.3-5.2-5.2-5.2"/><circle fill="#706F6F" cx="140.4" cy="157.1" r="1.3"/><path d="M187.1 22.3l-8-8m0 0l-8 8" fill="none" stroke="#F1F2F2" stroke-linecap="round" stroke-linejoin="round" stroke-miterlimit="10"/><path d="M140.1 262.4l8-8m0 0l-8-8" fill="none" stroke="#706F6F" stroke-linecap="round" stroke-linejoin="round" stroke-miterlimit="10"/><path d="M172.1 262.3l8-8m0 0l-8-8" fill="none" stroke="#F1F2F2" stroke-linecap="round" stroke-linejoin="round" stroke-miterlimit="10"/><path d="M148.1 278.4l-8 8m0 0l8 8" fill="none" stroke="#706F6F" stroke-linecap="round" stroke-linejoin="round" stroke-miterlimit="10"/><path d="M180.1 278.3l-8 8m0 0l8 8m-9-264l8 8m0 0l8-8m0 31.5h-16m9.8-11.4h-5.7m0 0v8m0 0h8m0 0V53m0 0l-2.2-2.6m2.2 2.6h-2.4m0 0v-2.6m-5.9 5.3H173m12.2 0h-1.8m1.8 0l1.9 1.9M173 55.7l-1.9 1.9m16 0v4.2m-16-4.2v4.2" fill="none" stroke="#F1F2F2" stroke-linecap="round" stroke-linejoin="round" stroke-miterlimit="10"/><path fill="#F1F2F2" d="M183.2 53l-2.3-2.6.1 2.6"/><path d="M183.3 78.9v-4.3m0 0H179m4.3 0l-6.9 6.9m4.7 4.8h-9.9m-.1-.1v-9.4m.1 0h5.7m4.2 9.4v-4.7m-10 24.3l3 3m0 0l3-3m-3 3v-9m-3 10.5h6" fill="none" stroke="#F1F2F2" stroke-linecap="round" stroke-linejoin="round" stroke-miterlimit="10"/><g fill="none" stroke="#F1F2F2" stroke-linejoin="round" stroke-miterlimit="10"><path stroke-linecap="round" d="M171.1 122.3h16m-16 4h16m-16 4h16m-16 4h16m-16 0v-12m16 12v-12m-4 12v-12m-4 12v-12m-4 12v-12"/><path d="M183.1 120.3v2m-8-2v2"/></g><path fill="none" stroke="#F1F2F2" stroke-linecap="round" stroke-linejoin="round" stroke-miterlimit="10" d="M179.5 157.6c0-4.3-3.5-7.8-7.8-7.8m10.4 7.8c0-5.7-4.6-10.4-10.4-10.4m5.3 10.4c0-2.9-2.3-5.2-5.2-5.2"/><circle fill="#F1F2F2" cx="172.4" cy="157" r="1.3"/><path fill="none" stroke="#706F6F" stroke-linecap="round" stroke-linejoin="round" stroke-miterlimit="10" d="M139.1 174.3h16m-16 6h16m-16 6h16"/><path fill="none" stroke="#F1F2F2" stroke-linecap="round" stroke-linejoin="round" stroke-miterlimit="10" d="M171 174.3h16m-16 6h16m-16 6h16"/><g fill="#706F6F"><path d="M143.3 210.1c-2.1 0-3.8-1.8-3.8-3.9 0-2.1 1.8-3.8 3.9-3.8 2.1 0 3.8 1.8 3.8 3.9 0 2.1-1.8 3.8-3.9 3.8zm.1-6.9c-1.7 0-3 1.3-3.1 3s1.3 3 3 3.1 3-1.3 3.1-3c0-1.7-1.3-3.1-3-3.1z"/><path d="M146.557 207.578l2.778 2.879-1.511 1.458-2.778-2.878z"/></g><g fill="#F1F2F2"><path d="M174.9 210.1c-2.1 0-3.8-1.8-3.8-3.9 0-2.1 1.8-3.8 3.9-3.8 2.1 0 3.8 1.8 3.8 3.9s-1.7 3.8-3.9 3.8zm.2-6.9c-1.7 0-3 1.3-3.1 3s1.3 3 3 3.1c1.7 0 3-1.3 3.1-3 0-1.7-1.4-3.1-3-3.1z"/><path d="M178.25 207.599l2.777 2.878-1.511 1.458-2.778-2.878z"/></g><path fill="none" stroke="#706F6F" stroke-linecap="round" stroke-linejoin="round" stroke-miterlimit="10" d="M149.1 226.3h-5.7m0 0v12.2m0 0h8m0 0v-9.6m0 0l-2.3-2.6m2.3 2.6h-2.5m0 0v-2.6"/><path fill="#706F6F" d="M151.4 228.9l-2.3-2.6v2.6"/><path fill="#B21F2B" d="M139.6 227.6h8.4v5.4h-8.4z"/><path d="M142.3 230c0 .3-.1.5-.2.6-.2.2-.4.2-.7.2h-.2v.8h-.7v-2.5h.9c.3 0 .6.1.7.2s.2.4.2.7zm-1.1.3h.1c.1 0 .2 0 .2-.1.1-.1.1-.1.1-.2 0-.2-.1-.3-.3-.3h-.2v.6zm4 .1c0 .4-.1.7-.3 1-.2.2-.6.3-1 .3h-.8v-2.5h.9c.4 0 .7.1.9.3s.3.5.3.9zm-.7 0c0-.2 0-.4-.1-.5-.1-.1-.2-.2-.4-.2h-.2v1.4h.2c.2 0 .4-.1.5-.2s0-.2 0-.5zm2.1 1.3h-.6v-2.5h1.5v.5h-.8v.5h.7v.5h-.7v1z" fill="#FFF"/><path fill="none" stroke="#F9F9F9" stroke-linecap="round" stroke-miterlimit="10" d="M180.3 226.3h-5.7m0 0v12.2m0 0h8m0 0v-9.6m0 0l-2.3-2.6m2.3 2.6h-2.4m0 0v-2.6"/><path fill="#F9F9F9" d="M182.6 228.9l-2.3-2.6v2.6"/><path fill="#B21F2B" d="M170.8 227.6h8.4v5.4h-8.4z"/><path d="M173.5 230c0 .3-.1.5-.2.6-.2.2-.4.2-.7.2h-.2v.8h-.7v-2.5h.9c.3 0 .6.1.7.2s.2.4.2.7zm-1.1.3h.1c.1 0 .2 0 .2-.1.1-.1.1-.1.1-.2 0-.2-.1-.3-.3-.3h-.2v.6zm4 .1c0 .4-.1.7-.3 1-.2.2-.6.3-1 .3h-.8v-2.5h.9c.4 0 .7.1.9.3.2.2.3.5.3.9zm-.7 0c0-.2 0-.4-.1-.5-.1-.1-.2-.2-.4-.2h-.2v1.4h.2c.2 0 .4-.1.5-.2s0-.2 0-.5zm2.2 1.3h-.7v-2.5h1.5v.5h-.8v.5h.7v.5h-.7v1z" fill="#FFF"/><path d="M155.1 322.3l-8-8m0 0l-8 8m8-8v16m0 0h8" fill="none" stroke="#706F6F" stroke-linecap="round" stroke-linejoin="round" stroke-miterlimit="10"/><path d="M187.3 322.3l-8-8m0 0l-8 8m8-8v16m0 0h8" fill="none" stroke="#F1F2F2" stroke-linecap="round" stroke-linejoin="round" stroke-miterlimit="10"/><circle fill="#3C7A9F" stroke="#F1F2F2" stroke-miterlimit="10" cx="147.1" cy="354.3" r="8"/><path fill="#F1F2F2" d="M147.2 357.8H146l1.2-5.6h1.2l-1.2 5.6zm.2-7c0-.2.1-.4.2-.6.1-.1.3-.2.6-.2.2 0 .3 0 .4.1.1.1.2.2.2.4s-.1.4-.2.6c-.1.1-.3.2-.5.2s-.3 0-.4-.1c-.2-.1-.3-.2-.3-.4z"/><circle fill="#3C7A9F" stroke="#F1F2F2" stroke-miterlimit="10" cx="179.1" cy="354.3" r="8"/><g><path fill="#F1F2F2" d="M179 357.8h-.9l1.2-5.6h.9l-1.2 5.6zm.5-7c0-.2.1-.3.2-.5s.2-.2.4-.2c.3 0 .4.2.4.5 0 .2-.1.3-.2.5-.1.1-.2.2-.4.2-.1 0-.2 0-.3-.1 0-.2-.1-.3-.1-.4z"/></g><path fill="#F1F2F2" d="M147.1 378.3h8l-4 5.6-4 5.6-4-5.6-4-5.6z"/></svg>